<?xml version="1.0" encoding="UTF-8"?>
<!DOCTYPE svg PUBLIC "-//W3C//DTD SVG 1.1//EN" "http://www.w3.org/Graphics/SVG/1.1/DTD/svg11.dtd">
<!-- Creator: CorelDRAW X7 -->
<svg xmlns="http://www.w3.org/2000/svg" xml:space="preserve" width="5in" height="5in" version="1.1" style="shape-rendering:geometricPrecision; text-rendering:geometricPrecision; image-rendering:optimizeQuality; fill-rule:evenodd; clip-rule:evenodd"
viewBox="0 0 5000 5000"
 xmlns:xlink="http://www.w3.org/1999/xlink"
 enable-background="new 0 0 64 64">
 <defs>
  <style type="text/css">
   <![CDATA[
    .fil0 {fill:#FC8816}
   ]]>
  </style>
 </defs>
 <g id="Layer_x0020_1">
  <metadata id="CorelCorpID_0Corel-Layer"/>
  <g id="bathtub.svg">
   <path class="fil0" d="M1637 2896c-32,0 -53,21 -53,52 0,32 21,53 53,53l106 0c32,0 53,-21 53,-53 0,-31 -21,-52 -53,-52l-106 0z"/>
   <path class="fil0" d="M3967 3954l-159 0 0 -153c249,-101 423,-344 423,-630l0 -180c64,-21 106,-80 106,-148 0,-69 -42,-127 -106,-149l0 -1122c0,-32 -21,-53 -53,-53 -31,0 -52,21 -52,53l0 1112 -477 0c-32,0 -53,21 -53,53 0,31 21,53 53,53l529 0c32,0 53,21 53,53 0,31 -21,53 -53,53l-2223 0c-32,0 -53,21 -53,52 0,32 21,53 53,53l2171 0 0 170c0,317 -255,572 -572,572l-1716 0c-317,0 -571,-255 -571,-572l0 -170 153 0c32,0 53,-21 53,-53 0,-31 -21,-52 -53,-52l-206 0c-32,0 -53,-22 -53,-53 0,-32 21,-53 53,-53l2223 0c32,0 53,-22 53,-53 0,-32 -21,-53 -53,-53l-2223 0c-90,0 -159,69 -159,159 0,68 42,127 106,148l0 180c0,286 174,529 423,630l0 153 -476 0c-32,0 -53,22 -53,53 0,32 21,53 53,53l2012 0c31,0 53,-21 53,-53 0,-31 -22,-53 -53,-53l-1186 0 53 -106 1419 0 52 106 -127 0c-31,0 -53,22 -53,53 0,32 22,53 53,53l636 0c31,0 53,-21 53,-53 0,-31 -22,-53 -53,-53zm-2150 0l-127 0 0 -121c69,21 180,15 180,15l-53 106zm1885 0l-127 0 -53 -106c0,0 101,0 180,-15l0 121zm582 0l-106 0c-31,0 -52,22 -52,53 0,32 21,53 52,53l106 0c32,0 53,-21 53,-53 0,-31 -21,-53 -53,-53z"/>
   <path class="fil0" d="M3723 1757c32,27 64,11 74,0 90,-90 101,-227 37,-328l122 -101c90,-63 170,27 170,80 0,32 21,53 52,53 32,0 53,-21 53,-53 0,-111 -95,-207 -206,-207 -48,0 -95,16 -132,48l-127 106c-106,-69 -244,-58 -339,32 -21,21 -21,53 0,74l296 296zm0 -296c48,47 58,122 32,180l-212 -212c58,-26 133,-16 180,32zm-868 958c0,16 0,53 53,53 69,0 122,42 148,106 21,48 69,32 80,26 90,-53 148,-21 169,-5 16,11 42,11 58,0 16,-11 27,-32 21,-53 0,0 -21,-175 159,-185 90,-5 159,74 159,159 0,31 21,53 53,53 26,0 58,5 79,21 27,16 59,5 74,-16 16,-27 6,-58 -15,-74 -27,-16 -59,-27 -90,-32 -22,-122 -133,-217 -260,-217 -222,5 -249,175 -254,217 -42,-11 -95,-11 -159,11 -37,-64 -100,-106 -174,-122 -16,-74 -59,-148 -122,-201 -21,-22 -53,-16 -74,5 -22,21 -16,58 5,74 58,58 90,122 90,180zm-1403 180c26,-16 53,-21 79,-21 32,0 53,-21 53,-53 0,-79 37,-159 101,-207 69,-52 164,-63 270,-37 26,6 53,-5 63,-31 27,-59 80,-96 149,-96 58,0 111,32 137,80 6,16 37,53 80,16 58,-53 122,-80 196,-75 31,0 53,-21 53,-52 0,-32 -22,-53 -53,-53 -80,-6 -154,21 -223,68 -47,-53 -122,-84 -196,-84 -90,0 -174,47 -222,121 -154,-31 -259,16 -323,64 -74,58 -127,148 -138,244 -31,5 -58,15 -84,31 -21,11 -32,43 -16,69 16,32 63,21 74,16z"/>
   <path class="fil0" d="M1690 2525c0,32 21,53 53,53 32,0 53,-21 53,-53 0,-32 21,-53 53,-53 32,0 53,-21 53,-53 0,-32 -21,-53 -53,-53 -90,0 -159,69 -159,159zm1641 1112c32,0 53,-21 53,-53 0,-32 -21,-53 -53,-53l-105 0c-32,0 -53,21 -53,53 0,32 21,53 53,53l105 0zm689 -471c0,-32 -22,-53 -53,-53 -32,0 -53,21 -53,53 0,201 -164,365 -366,365 -31,0 -52,21 -52,53 0,32 21,53 52,53 260,0 472,-212 472,-471z"/>
   <circle class="fil0" cx="3464" cy="1720" r="53"/>
   <circle class="fil0" cx="3384" cy="1948" r="53"/>
   <circle class="fil0" cx="3236" cy="1794" r="53"/>
   <circle class="fil0" cx="3316" cy="2170" r="53"/>
   <circle class="fil0" cx="3162" cy="2022" r="53"/>
   <circle class="fil0" cx="3014" cy="1874" r="53"/>
  </g>
 </g>
</svg>
