<?xml version="1.0" encoding="UTF-8"?>
<!DOCTYPE svg PUBLIC "-//W3C//DTD SVG 1.1//EN" "http://www.w3.org/Graphics/SVG/1.1/DTD/svg11.dtd">
<!-- Creator: CorelDRAW X7 -->
<svg xmlns="http://www.w3.org/2000/svg" xml:space="preserve" width="5in" height="5in" version="1.1" style="shape-rendering:geometricPrecision; text-rendering:geometricPrecision; image-rendering:optimizeQuality; fill-rule:evenodd; clip-rule:evenodd"
viewBox="0 0 5000 5000"
 xmlns:xlink="http://www.w3.org/1999/xlink">
 <defs>
  <style type="text/css">
   <![CDATA[
    .fil0 {fill:#FC8816}
    .fil1 {fill:white}
   ]]>
  </style>
 </defs>
 <g id="Layer_x0020_1">
  <metadata id="CorelCorpID_0Corel-Layer"/>
  <ellipse class="fil0" cx="2982" cy="2858" rx="1930" ry="1931"/>
  <g id="camera.svg">
   <g>
    <path class="fil1" d="M3914 2354l-378 0c-97,0 -100,-90 -100,-101l0 -50c0,-63 -70,-151 -202,-151l-502 0c-148,0 -202,90 -202,151l0 50c0,4 -2,101 -102,101l-378 0c-70,0 -126,57 -126,126l0 907c0,70 56,126 126,126l302 0c14,0 26,-11 26,-25 0,-14 -12,-25 -26,-25l-302 0c-42,0 -76,-34 -76,-76l0 -630 403 0c-33,80 -50,165 -50,252 0,0 0,0 0,0 0,361 294,655 655,655 361,0 655,-294 655,-655 0,-89 -18,-174 -50,-252l403 0 0 630c0,42 -34,76 -76,76l-352 0c-14,0 -26,11 -26,25 0,14 12,25 26,25l352 0c70,0 126,-56 126,-126l0 -907c0,-69 -56,-126 -126,-126zm-932 1260c-333,0 -605,-271 -605,-605 0,-333 272,-604 605,-604 334,0 605,271 605,604 0,334 -271,605 -605,605l0 0zm592 -907c-3,0 -7,1 -10,2 -109,-210 -329,-355 -582,-355 -253,0 -473,145 -582,355 -3,-1 -6,-2 -10,-2l-416 0 0 -227c0,-41 34,-75 76,-75l378 0c119,0 152,-99 153,-152l0 -50c0,-40 40,-101 151,-101l502 0c106,0 151,67 151,101l0 50c0,53 32,152 151,152l378 0c42,0 76,34 76,75l0 227 -416 0z"/>
    <path class="fil1" d="M2403 2304l0 -51c25,-66 -9,-100 -51,-100l-201 0c-42,0 -76,34 -76,75l0 51 0 -51 202 0 0 51 126 25zm579 252c-250,0 -453,203 -453,453 0,250 203,454 453,454 250,0 454,-204 454,-454 0,-250 -204,-453 -454,-453zm0 856c-222,0 -403,-180 -403,-403 0,-222 181,-403 403,-403 222,0 403,181 403,403 0,223 -181,403 -403,403z"/>
   </g>
  </g>
 </g>
</svg>
