<?xml version="1.0" encoding="UTF-8"?>
<!DOCTYPE svg PUBLIC "-//W3C//DTD SVG 1.1//EN" "http://www.w3.org/Graphics/SVG/1.1/DTD/svg11.dtd">
<!-- Creator: CorelDRAW X7 -->
<svg xmlns="http://www.w3.org/2000/svg" xml:space="preserve" width="5in" height="5in" version="1.1" style="shape-rendering:geometricPrecision; text-rendering:geometricPrecision; image-rendering:optimizeQuality; fill-rule:evenodd; clip-rule:evenodd"
viewBox="0 0 5000 5000"
 xmlns:xlink="http://www.w3.org/1999/xlink"
 data-name="Layer 1">
 <defs>
  <style type="text/css">
   <![CDATA[
    .fil0 {fill:#FC8816}
   ]]>
  </style>
 </defs>
 <g id="Layer_x0020_1">
  <metadata id="CorelCorpID_0Corel-Layer"/>
  <path class="fil0" d="M3315 2008c62,-57 96,-138 96,-222 0,-168 -136,-305 -305,-305 -77,0 -152,30 -209,83l-772 0c-69,-64 -161,-100 -256,-100 -208,0 -377,169 -377,377 0,105 44,206 122,277l0 605c0,62 50,113 112,113l37 0 0 37c0,62 50,112 112,112 62,0 113,-50 113,-112l0 -37 1047 0 0 37c0,62 50,112 112,112 62,0 112,-50 112,-112l0 -37 38 0c62,0 112,-51 112,-113l0 -605c0,-54 -40,-101 -94,-110l0 0zm-1402 865c0,21 -17,37 -38,37 -20,0 -37,-16 -37,-37l0 -37 75 0 0 37zm1271 0c0,21 -16,37 -37,37 -21,0 -37,-16 -37,-37l0 -37 74 0 0 37zm150 -150c0,21 -17,38 -37,38l-1571 0c-21,0 -38,-17 -38,-38l0 -187 1646 0 0 187zm-1010 -411l762 0c56,4 99,50 99,106 0,2 0,4 -1,6l0 38 -1346 0 0 -38c0,-2 0,-4 0,-6 0,-56 43,-102 98,-106l388 0zm-262 -75l0 -112c0,-21 17,-37 38,-37l149 0c21,0 38,16 38,37l0 112 -225 0zm487 -149l0 -113c0,-20 16,-37 37,-37l224 0c21,0 38,17 38,37l0 262 -299 -149zm635 -150l0 187c0,-21 17,-37 38,-37l149 0c21,0 38,16 38,37l0 112 -225 -299zm225 243l-150 131 0 -37c-33,-30 -75,-46 -119,-46 -18,0 -36,3 -54,8l-51 0 0 -112c0,-62 -50,-112 -112,-112l-150 0c-13,0 -25,2 -37,6l0 -44c0,-62 -51,-112 -113,-112l-224 0c-62,0 -112,50 -112,112l0 44c-12,-4 -25,-6 -38,-6l-149 0c-62,0 -112,50 -112,112l0 112 -52 0c-97,4 -173,84 -173,180 0,3 0,5 0,7l0 38 -75 0 0 -344c0,-18 14,-34 32,-36 -62,-57 -98,-138 -98,-222 0,-166 135,-300 301,-300 75,0 147,28 202,79l12 0 0 93c0,21 17,38 38,38 20,0 37,-17 37,-38l0 -93 150 0 0 93c0,21 16,38 37,38 21,0 37,-17 37,-38l0 -93 150 0 0 93c0,21 17,38 37,38 21,0 38,-17 38,-38l0 -93 149 0 0 93c0,21 17,38 38,38 21,0 37,-17 37,-38l0 -93 12 0c18,3 32,18 32,36l480 506z"/>
 </g>
</svg>
