<?xml version="1.0" encoding="UTF-8"?>
<!DOCTYPE svg PUBLIC "-//W3C//DTD SVG 1.1//EN" "http://www.w3.org/Graphics/SVG/1.1/DTD/svg11.dtd">
<!-- Creator: CorelDRAW X7 -->
<svg xmlns="http://www.w3.org/2000/svg" xml:space="preserve" width="5in" height="5in" version="1.1" style="shape-rendering:geometricPrecision; text-rendering:geometricPrecision; image-rendering:optimizeQuality; fill-rule:evenodd; clip-rule:evenodd"
viewBox="0 0 5000 5000"
 xmlns:xlink="http://www.w3.org/1999/xlink"
 data-name="Layer 1">
 <defs>
  <style type="text/css">
   <![CDATA[
    .fil0 {fill:#FC8816}
   ]]>
  </style>
 </defs>
 <g id="Layer_x0020_1">
  <metadata id="CorelCorpID_0Corel-Layer"/>
  <path class="fil0" d="M2632 347c-10,-6 -22,-10 -34,-10 -13,0 -25,4 -35,10l-1878 1166c-19,12 -30,32 -30,54l0 259c0,36 29,65 65,65l64 0 0 2267c0,36 29,65 65,65l3498 0c36,0 65,-29 65,-65l0 -2267 65 0c35,0 64,-29 64,-65l0 -259c0,-22 -12,-42 -31,-54l-1878 -1166zm-1135 2840l2202 0c36,0 65,29 65,65l0 388c0,36 -29,65 -65,65l-712 0 0 -194c0,-36 -29,-65 -65,-65l-648 0c-35,0 -64,29 -64,65l0 194 -713 0c-36,0 -65,-29 -65,-65l0 -388c0,-36 29,-65 65,-65l0 0zm47 -65l388 -679c35,-60 99,-98 169,-98l865 0c70,0 134,38 169,98l388 679 -1979 0zm1961 842c0,72 -58,130 -130,130 -71,0 -129,-58 -129,-130l0 -129 259 0 0 129zm-1555 -129l1166 0 0 129c1,46 13,90 37,130l-1239 0c23,-40 36,-84 36,-130l0 -129zm871 129l-482 0 0 -389 518 0 -36 389zm-1259 0l0 -129 259 0 0 129c0,72 -58,130 -130,130 -71,0 -129,-58 -129,-130l0 0zm2979 130l-943 0c24,-40 36,-84 37,-130l0 -129 64 0c108,0 195,-87 195,-195l0 -388c0,-2 0,-3 0,-5 0,-91 -65,-171 -154,-190l-428 -747c-58,-99 -165,-160 -280,-160 0,0 -1,0 -1,0l-866 0c-116,1 -223,63 -281,164l-427 743c-90,19 -154,99 -154,190 0,2 0,3 0,5l0 388c0,82 52,156 129,183l0 141c1,46 13,90 36,130l-554 0 0 -2203 65 0c36,0 65,-29 65,-65l0 -129 1554 -960 1555 965 0 130c0,35 29,64 65,64l64 0 259 2198zm-439 -3044l0 0 0 -96c0,-22 -12,-43 -31,-55l-1439 -293c-10,-6 -22,-10 -34,-10 -13,0 -25,4 -35,10l-1618 1004c-19,12 -31,32 -31,55l0 97 -130 0 0 -158 1814 -1126 1814 1126 -310 -554z"/>
  <path class="fil0" d="M1849 3485c71,0 129,-58 129,-129 0,-72 -58,-130 -129,-130 -72,0 -130,58 -130,130 0,71 58,129 130,129l0 0zm1554 0c72,0 130,-58 130,-129 0,-72 -58,-130 -130,-130 -71,0 -129,58 -129,130 0,71 58,129 129,129z"/>
 </g>
</svg>
