<?xml version="1.0" encoding="UTF-8"?>
<!DOCTYPE svg PUBLIC "-//W3C//DTD SVG 1.1//EN" "http://www.w3.org/Graphics/SVG/1.1/DTD/svg11.dtd">
<!-- Creator: CorelDRAW X7 -->
<svg xmlns="http://www.w3.org/2000/svg" xml:space="preserve" width="5in" height="5in" version="1.1" style="shape-rendering:geometricPrecision; text-rendering:geometricPrecision; image-rendering:optimizeQuality; fill-rule:evenodd; clip-rule:evenodd"
viewBox="0 0 5000 5000"
 xmlns:xlink="http://www.w3.org/1999/xlink">
 <defs>
  <style type="text/css">
   <![CDATA[
    .fil0 {fill:#FC8816}
    .fil1 {fill:white}
   ]]>
  </style>
 </defs>
 <g id="Layer_x0020_1">
  <metadata id="CorelCorpID_0Corel-Layer"/>
  <ellipse class="fil0" cx="2363" cy="2591" rx="1930" ry="1931"/>
  <path class="fil1" d="M2972 2276l0 -80c0,-337 -273,-610 -610,-610 -337,0 -610,273 -610,610l0 80c-24,21 -37,51 -38,83l0 1072c1,62 50,113 112,114l1072 0c0,0 0,0 0,0 63,0 114,-51 114,-114l0 -1072c-1,-32 -15,-62 -40,-83l0 0zm-243 52l-696 0 0 -48c0,-182 147,-330 329,-330 182,0 330,148 330,330l37 48zm-909 -132c0,-301 244,-545 545,-545 301,0 545,244 545,545l0 49 -151 0 0 -48c0,-219 -178,-397 -397,-397 -219,0 -397,178 -397,397l0 48 -145 0 0 -49zm1125 1235c0,0 0,0 0,0 0,26 -21,46 -47,46 0,0 0,0 0,0l-1072 0c0,0 0,0 0,0 -26,0 -46,-20 -46,-46 0,0 0,0 0,0l0 -1072c7,-4 16,-7 25,-7 0,0 0,0 0,0l1093 0c13,9 21,24 21,40l26 1039z"/>
  <path class="fil1" d="M2494 3330c146,120 -341,-152 -341,-341 0,-137 83,-261 209,-314 -1,4 -2,7 -2,11 0,4 1,7 2,11l204 497c0,1 0,3 0,4 0,8 -3,16 -9,22 358,436 -313,-94 -63,110z"/>
 </g>
</svg>
