<?xml version="1.0" encoding="UTF-8"?>
<!DOCTYPE svg PUBLIC "-//W3C//DTD SVG 1.1//EN" "http://www.w3.org/Graphics/SVG/1.1/DTD/svg11.dtd">
<!-- Creator: CorelDRAW X7 -->
<svg xmlns="http://www.w3.org/2000/svg" xml:space="preserve" width="5in" height="5in" version="1.1" style="shape-rendering:geometricPrecision; text-rendering:geometricPrecision; image-rendering:optimizeQuality; fill-rule:evenodd; clip-rule:evenodd"
viewBox="0 0 5000 5000"
 xmlns:xlink="http://www.w3.org/1999/xlink">
 <defs>
  <style type="text/css">
   <![CDATA[
    .fil0 {fill:#FC8816}
    .fil1 {fill:white}
   ]]>
  </style>
 </defs>
 <g id="Layer_x0020_1">
  <metadata id="CorelCorpID_0Corel-Layer"/>
  <ellipse class="fil0" cx="2772" cy="2485" rx="1930" ry="1931"/>
  <g id="_373879360">
   <path class="fil1" d="M3085 1411l-1414 1414c-15,15 -15,39 0,54l680 681c15,15 39,15 54,0l709 -709c8,8 650,-647 676,-658l95 -94 -773 -617 -1370 1370 636 637 697 -697c-12,-22 -21,-46 -28,-71l-571 572 -25 -25c-40,-40 -106,-40 -146,0l-25 25 -343 -343 25 -24c40,-41 40,-107 0,-147l-25 -25 1077 -1077 25 25c40,40 106,40 147,0l24 -25 343 343 -25 25c-40,40 -40,106 0,146l98 98 -82 82c18,5 34,11 51,18l-35 34c14,-14 27,-28 39,-38l10 -11c-103,-104 -278,-96 -383,9 -105,105 -108,274 -9,383l314 -313c17,-25 40,-55 71,-90l218 -218c15,-15 15,-39 0,-54l-681 -680c-15,-15 -39,-15 -54,0zm52 976c-66,66 -102,155 -101,248l-563 563c-58,-38 -133,-38 -190,-1l-250 -249c38,-58 38,-133 0,-191l984 -984c58,38 133,38 191,0l249 249c-38,58 -38,134 0,191l-73 74c-92,-1 -182,35 -247,100l0 0z"/>
   <path class="fil1" d="M3014 2069c-40,41 -40,106 0,147 41,40 107,40 147,0 41,-41 41,-106 0,-147 -40,-41 -106,-41 -147,0z"/>
   <path class="fil1" d="M2329 2754c-41,41 -41,107 0,147 41,41 106,41 147,0 40,-40 40,-106 0,-147 -41,-40 -106,-40 -147,0l0 0z"/>
   <path class="fil1" d="M2647 2387c27,-26 66,-32 86,-12l49 -49c-44,-39 -108,-43 -156,-9l-28 -28 -49 49 28 28c-34,48 -30,112 9,156 52,45 130,42 178,-7 2,-1 4,-3 6,-5 26,-27 65,-32 85,-13 20,20 15,60 -12,86 -26,26 -66,32 -86,12l-49 49c44,39 109,43 157,10l27 27 49 -49 -27 -27c33,-48 29,-113 -10,-157 -52,-44 -129,-42 -178,7 -2,2 -4,4 -5,6 -27,26 -66,32 -86,12 -20,-20 -14,-59 12,-86z"/>
  </g>
 </g>
</svg>
